<svg width="289" height="289" viewBox="0 0 289 289" fill="none" xmlns="http://www.w3.org/2000/svg">
<rect width="289" height="289" rx="70" fill="url(#paint0_radial)"/>
<path d="M289 219.005V152.5C228 152.5 189 112.5 144 112.5C107 113.5 85.7154 137 57.5 137C29.2846 137 0 113 0 113V219.014C0 257.674 31.3401 289 70 289H219C257.66 289 289 257.665 289 219.005Z" fill="url(#paint1_linear)"/>
<mask id="mask0" mask-type="alpha" maskUnits="userSpaceOnUse" x="0" y="0" width="289" height="289">
<rect width="289" height="289" rx="70" fill="url(#paint2_radial)"/>
</mask>
<g mask="url(#mask0)">
<path d="M296.5 137.591L296.5 -5.99976C278.95 -12.626 234.425 -12.626 219.661 -6.00004L219.661 124.338C219.661 201.402 208.509 229 142 229C79.7533 229 85.5915 172 18.4999 172C-39.8259 172 -94.307 239.682 -70.2407 282.541C-26.3413 353.774 23.4647 296.5 179.5 296.5C305.546 296.5 296.5 232.049 296.5 137.591Z" fill="#1C3C09"/>
</g>
<defs>
<radialGradient id="paint0_radial" cx="0" cy="0" r="1" gradientUnits="userSpaceOnUse" gradientTransform="translate(161 130) rotate(-90.1742) scale(164.501 307.755)">
<stop stop-color="#FEFFBC"/>
<stop offset="0.494792" stop-color="#B7EB49"/>
<stop offset="1" stop-color="#6A9216"/>
</radialGradient>
<linearGradient id="paint1_linear" x1="144.5" y1="108.5" x2="144.5" y2="289" gradientUnits="userSpaceOnUse">
<stop stop-color="#A7BA4E"/>
<stop offset="1" stop-color="#597819"/>
</linearGradient>
<radialGradient id="paint2_radial" cx="0" cy="0" r="1" gradientUnits="userSpaceOnUse" gradientTransform="translate(155 73) rotate(-85.3937) scale(105.842 199.062)">
<stop stop-color="white"/>
<stop offset="0.532872" stop-color="#CBE54E"/>
<stop offset="1" stop-color="#9EBD07"/>
</radialGradient>
</defs>
</svg>
