<svg width="1024" height="1024" viewBox="0 0 1024 1024" fill="none" xmlns="http://www.w3.org/2000/svg">
<mask id="mask0" mask-type="alpha" maskUnits="userSpaceOnUse" x="0" y="0" width="1024" height="1024">
<path d="M0 248.028C0 111.046 111.046 0 248.028 0H775.972C912.954 0 1024 111.046 1024 248.028V775.972C1024 912.954 912.954 1024 775.972 1024H248.028C111.046 1024 0 912.954 0 775.972V248.028Z" fill="url(#paint0_radial)"/>
</mask>
<g mask="url(#mask0)">
<path d="M0 248.028C0 111.046 111.046 0 248.028 0H775.972C912.954 0 1024 111.046 1024 248.028V775.972C1024 912.954 912.954 1024 775.972 1024H248.028C111.046 1024 0 912.954 0 775.972V248.028Z" fill="url(#paint1_radial)"/>
<path d="M508.457 878.727L-44.2907 795.46L-127.557 804.318V1169.27H1101.95V781.287L508.457 878.727Z" fill="#EBF1E9"/>
<path d="M508.457 949.592L-14.1729 882.27V1101.95H1027.54V882.27L508.457 949.592Z" fill="#9BAB98"/>
<path fill-rule="evenodd" clip-rule="evenodd" d="M1036.9 761.616L563.81 838.333C528.36 844.082 492.233 844.296 456.718 838.969L-23.3618 766.957L-19.157 738.925L460.923 810.937C493.539 815.829 526.717 815.632 559.273 810.353L1032.36 733.636L1036.9 761.616Z" fill="#5D6E1E"/>
<path d="M258.658 628.927C258.658 678.828 218.205 719.28 168.305 719.28C118.404 719.28 77.9517 678.828 77.9517 628.927C77.9517 579.027 118.404 538.574 168.305 538.574C218.205 538.574 258.658 579.027 258.658 628.927Z" fill="#5D6E1E"/>
<path d="M946.049 628.927C946.049 678.828 905.596 719.28 855.696 719.28C805.795 719.28 765.343 678.828 765.343 628.927C765.343 579.027 805.795 538.574 855.696 538.574C905.596 538.574 946.049 579.027 946.049 628.927Z" fill="#5D6E1E"/>
<path d="M233.855 628.927C233.855 665.13 204.507 694.477 168.305 694.477C132.102 694.477 102.754 665.13 102.754 628.927C102.754 592.725 132.102 563.377 168.305 563.377C204.507 563.377 233.855 592.725 233.855 628.927Z" fill="#E7FA8C"/>
<path d="M921.246 628.927C921.246 665.13 891.898 694.477 855.696 694.477C819.493 694.477 790.146 665.13 790.146 628.927C790.146 592.725 819.493 563.377 855.696 563.377C891.898 563.377 921.246 592.725 921.246 628.927Z" fill="#E7FA8C"/>
<path d="M577.55 561.606C577.55 597.808 548.202 627.156 512 627.156C475.798 627.156 446.45 597.808 446.45 561.606C446.45 525.403 475.798 496.055 512 496.055C548.202 496.055 577.55 525.403 577.55 561.606Z" fill="#A4B93E"/>
<path d="M-46.0625 -102.754H1055.89V368.498H-46.0625V-102.754Z" fill="url(#paint2_linear)"/>
<path d="M180.706 779.516C180.706 761.904 194.983 747.626 212.595 747.626C230.207 747.626 244.485 761.904 244.485 779.516V850.381C244.485 867.993 230.207 882.27 212.595 882.27C194.983 882.27 180.706 867.993 180.706 850.381V779.516Z" fill="#9BAB98"/>
<path d="M772.429 779.516C772.429 761.904 786.707 747.626 804.318 747.626C821.93 747.626 836.208 761.904 836.208 779.516V850.381C836.208 867.993 821.93 882.27 804.318 882.27C786.707 882.27 772.429 867.993 772.429 850.381V779.516Z" fill="#9BAB98"/>
<path d="M294.09 435.82C294.09 422.122 305.194 411.017 318.893 411.017H701.564C715.262 411.017 726.367 422.122 726.367 435.82C726.367 449.518 715.262 460.623 701.564 460.623H318.893C305.194 460.623 294.09 449.518 294.09 435.82Z" fill="#EBF1E9"/>
<path fill-rule="evenodd" clip-rule="evenodd" d="M736.997 437.592C736.997 440.527 734.617 442.907 731.682 442.907L285.232 442.907C282.297 442.907 279.917 440.527 279.917 437.592C279.917 434.656 282.297 432.277 285.232 432.277L731.682 432.277C734.617 432.277 736.997 434.656 736.997 437.592Z" fill="#9BAB98"/>
<path d="M164.838 83.5191C168.919 63.7707 186.311 49.6055 206.477 49.6055H444.677C468.16 49.6055 487.196 68.6419 487.196 92.1245V272.83C487.196 296.313 468.16 315.349 444.677 315.349H169.131C142.188 315.349 122.039 290.61 127.492 264.225L164.838 83.5191Z" fill="#5D6E1E"/>
<path d="M-190.258 14.4454C-182.319 -4.09169 -162.45 -14.5021 -142.69 -10.4787L90.7212 37.0464C113.732 41.7316 128.587 64.1834 123.902 87.1938L87.8481 264.267C83.163 287.277 60.7112 302.133 37.7007 297.447L-232.305 242.471C-258.706 237.096 -273.515 208.834 -262.907 184.067L-190.258 14.4454Z" fill="#5D6E1E"/>
<path d="M866.484 80.0153C862.418 60.2482 845.018 46.0621 824.837 46.0621H588.179C564.696 46.0621 545.66 65.0986 545.66 88.5812V269.287C545.66 292.77 564.696 311.806 588.179 311.806H862.004C888.93 311.806 909.076 287.095 903.651 260.721L866.484 80.0153Z" fill="#5D6E1E"/>
<path d="M1221.22 14.3186C1213.35 -4.26323 1193.5 -14.7509 1173.71 -10.7828L941.675 35.7508C918.651 40.3681 903.729 62.776 908.347 85.8002L943.878 262.978C948.496 286.003 970.904 300.924 993.928 296.307L1262.41 242.465C1288.81 237.171 1303.7 208.981 1293.2 184.189L1221.22 14.3186Z" fill="#5D6E1E"/>
<path d="M88.5815 496.055C88.5815 507.797 79.0633 517.315 67.322 517.315C55.5807 517.315 46.0625 507.797 46.0625 496.055C46.0625 484.314 55.5807 474.796 67.322 474.796C79.0633 474.796 88.5815 484.314 88.5815 496.055Z" fill="#CBE54E"/>
<path d="M977.938 496.055C977.938 507.797 968.42 517.315 956.678 517.315C944.937 517.315 935.419 507.797 935.419 496.055C935.419 484.314 944.937 474.796 956.678 474.796C968.42 474.796 977.938 484.314 977.938 496.055Z" fill="#CBE54E"/>
<path fill-rule="evenodd" clip-rule="evenodd" d="M452.387 336.547C451.753 342.383 446.508 346.6 440.671 345.966L135.827 312.83C129.991 312.196 125.774 306.95 126.408 301.114C127.043 295.278 132.288 291.061 138.124 291.695L442.969 324.831C448.805 325.465 453.022 330.71 452.387 336.547Z" fill="#9BAB98"/>
<path fill-rule="evenodd" clip-rule="evenodd" d="M881.121 336.547C880.486 342.383 875.241 346.6 869.405 345.966L564.56 312.83C558.724 312.196 554.507 306.95 555.142 301.114C555.776 295.278 561.021 291.061 566.858 291.695L871.702 324.831C877.538 325.465 881.755 330.71 881.121 336.547Z" fill="#9BAB98"/>
</g>
<defs>
<radialGradient id="paint0_radial" cx="0" cy="0" r="1" gradientUnits="userSpaceOnUse" gradientTransform="translate(-421.647 1481.08) rotate(-45.7534) scale(2000.78)">
<stop stop-color="#5D6E1E"/>
<stop offset="0.725509" stop-color="#CBE54E"/>
<stop offset="1" stop-color="#ECFF92"/>
</radialGradient>
<radialGradient id="paint1_radial" cx="0" cy="0" r="1" gradientUnits="userSpaceOnUse" gradientTransform="translate(-421.647 1481.08) rotate(-45.7534) scale(2000.78)">
<stop stop-color="#5D6E1E"/>
<stop offset="0.725509" stop-color="#CBE54E"/>
<stop offset="1" stop-color="#ECFF92"/>
</radialGradient>
<linearGradient id="paint2_linear" x1="503.142" y1="-10.6298" x2="503.142" y2="368.498" gradientUnits="userSpaceOnUse">
<stop stop-color="#EBF1E9"/>
<stop offset="1" stop-color="#EBF1E9"/>
</linearGradient>
</defs>
</svg>
